<?xml version="1.0" standalone="no"?>
<!DOCTYPE svg PUBLIC "-//W3C//DTD SVG 20010904//EN"
 "http://www.w3.org/TR/2001/REC-SVG-20010904/DTD/svg10.dtd">
<svg version="1.0" xmlns="http://www.w3.org/2000/svg"
 width="1200.000000pt" height="1200.000000pt" viewBox="0 0 1200.000000 1200.000000"
 preserveAspectRatio="xMidYMid meet">
<metadata>
Created by potrace 1.14, written by Peter Selinger 2001-2017
</metadata>
<g transform="translate(0.000000,1200.000000) scale(0.100000,-0.100000)"
fill="#000000" stroke="none">
<path d="M5676 11919 c-1153 -69 -2259 -472 -3182 -1159 -447 -333 -891 -777
-1224 -1224 -483 -649 -841 -1422 -1018 -2201 -362 -1586 -69 -3229 816 -4580
956 -1461 2498 -2423 4227 -2639 258 -32 409 -41 735 -41 326 0 477 9 735 41
1344 168 2574 782 3521 1757 682 703 1184 1570 1449 2507 103 364 169 726 207
1140 16 176 16 784 0 960 -72 777 -253 1439 -576 2105 -1052 2164 -3294 3478
-5690 3334z m740 -419 c1198 -93 2247 -519 3169 -1286 162 -135 507 -479 647
-644 771 -916 1210 -1994 1298 -3190 21 -291 11 -714 -25 -1030 -123 -1064
-552 -2054 -1261 -2905 -135 -162 -479 -507 -644 -647 -767 -646 -1668 -1067
-2635 -1232 -515 -87 -1055 -101 -1585 -41 -1066 123 -2077 563 -2920 1273
-165 140 -509 485 -644 647 -474 570 -807 1167 -1030 1850 -194 597 -275 1154
-263 1815 7 397 32 627 107 1000 183 903 589 1736 1198 2460 140 165 485 509
647 644 914 761 1983 1197 3150 1285 160 12 641 13 791 1z"/>
<path d="M3877 10122 c-20 -64 -37 -128 -37 -142 0 -14 -16 -85 -35 -159 -19
-73 -44 -184 -55 -245 -12 -61 -36 -163 -55 -226 -24 -79 -41 -170 -55 -290
-28 -235 -71 -500 -115 -698 -49 -228 -49 -355 0 -602 19 -96 35 -185 35 -197
0 -41 102 -328 145 -411 69 -129 150 -222 248 -280 122 -74 190 -105 316 -147
111 -37 115 -37 160 -23 28 9 46 20 45 29 -1 8 -52 176 -114 374 -62 198 -159
524 -216 725 l-103 365 21 22 c53 56 122 -29 223 -277 37 -91 91 -208 121
-261 43 -78 87 -193 229 -609 155 -453 178 -528 196 -644 14 -90 28 -145 45
-175 25 -45 81 -308 71 -333 -2 -8 -47 -32 -99 -54 -56 -25 -181 -99 -314
-186 l-219 -144 -167 -185 -166 -185 -122 -245 c-241 -480 -309 -737 -294
-1106 7 -185 20 -261 60 -367 41 -107 103 -194 217 -303 l84 -81 139 -7 c220
-13 701 -12 714 1 7 8 6 40 -5 114 l-15 103 46 86 c25 47 51 92 58 100 6 8
248 204 537 437 524 420 529 424 1081 797 306 208 619 411 698 455 132 73 276
131 399 163 l44 11 -154 155 c-85 85 -170 165 -189 177 -19 13 -165 93 -325
178 -327 176 -404 205 -678 263 -148 31 -184 35 -316 35 l-149 0 -6 93 c-3 50
-8 158 -12 239 l-6 147 69 68 c37 37 97 84 133 103 104 56 293 258 377 404 7
11 13 42 13 68 0 26 11 76 24 111 22 60 24 81 35 452 9 323 8 426 -3 597 -8
115 -17 211 -20 216 -4 7 -66 307 -66 320 0 22 -81 -80 -180 -228 -108 -161
-133 -189 -295 -350 -115 -114 -231 -242 -332 -368 l-156 -192 -23 -158 c-41
-285 -41 -276 5 -457 39 -151 86 -262 117 -272 11 -4 75 171 129 355 33 117
93 276 149 404 23 52 28 57 78 73 29 10 58 20 65 22 6 3 19 -10 28 -27 14 -27
15 -44 5 -123 -6 -52 -23 -125 -39 -167 -37 -97 -65 -216 -86 -360 -19 -129
-49 -232 -106 -365 -38 -88 -39 -92 -38 -210 0 -66 4 -181 8 -255 5 -74 7
-137 5 -139 -1 -2 -107 -25 -233 -52 -152 -32 -253 -59 -297 -79 -37 -16 -70
-30 -74 -30 -4 0 -30 61 -59 135 -40 105 -55 164 -72 270 -13 88 -36 182 -65
267 l-44 131 37 116 c19 64 57 168 84 232 45 108 49 127 64 270 13 115 15 194
10 313 -7 155 -9 163 -55 300 -75 222 -161 407 -234 501 -34 44 -98 130 -141
190 -43 61 -113 153 -155 205 -78 96 -238 355 -316 510 -44 87 -96 255 -114
364 -5 34 -19 120 -30 192 -19 119 -52 247 -69 267 -4 4 -24 -46 -44 -111z"/>
<path d="M3230 6766 c0 -2 53 -37 117 -77 214 -131 363 -269 719 -661 237
-261 243 -266 279 -215 32 45 22 60 -220 332 -191 215 -249 274 -311 316 -123
83 -456 280 -498 295 -37 13 -86 19 -86 10z"/>
<path d="M8760 5701 l0 -231 59 0 59 0 7 109 7 109 355 7 355 7 -7 107 c-4 58
-8 107 -9 107 0 1 -187 5 -413 9 l-413 7 0 -231z"/>
<path d="M7696 5588 c45 -45 91 -98 103 -115 l22 -33 320 0 319 0 0 104 0 104
-217 6 c-120 3 -310 9 -423 12 l-205 6 81 -84z"/>
<path d="M9034 5273 c4 -38 29 -396 56 -798 27 -401 52 -760 56 -797 l6 -68
359 0 359 0 0 218 c0 120 -3 510 -7 865 l-6 647 -415 0 -414 0 6 -67z"/>
<path d="M8150 5100 c-417 -36 -451 -41 -545 -71 -236 -75 -448 -197 -748
-432 -300 -235 -1191 -844 -1604 -1098 -38 -23 -85 -67 -136 -128 -70 -82 -79
-98 -88 -149 -19 -117 -10 -162 47 -239 28 -37 130 -75 203 -75 73 0 46 -14
721 369 333 190 495 270 637 317 144 48 196 40 243 -37 27 -44 24 -81 -13
-157 l-32 -65 -125 -66 c-69 -36 -213 -119 -320 -185 -107 -66 -276 -167 -374
-224 -173 -101 -185 -106 -340 -148 l-161 -44 -305 -9 c-195 -6 -313 -13 -327
-20 -16 -8 -56 -10 -135 -4 -62 4 -194 9 -293 11 -274 6 -304 11 -427 80 -56
31 -134 78 -173 104 -38 26 -124 75 -190 110 -66 35 -145 80 -175 100 -30 21
-65 40 -77 44 -12 4 -49 38 -83 76 -46 52 -70 71 -95 76 -47 8 -95 -10 -144
-55 -43 -39 -49 -61 -35 -129 18 -89 414 -451 780 -713 202 -145 296 -198 349
-198 425 1 719 -6 985 -22 207 -12 447 -19 663 -19 315 0 342 1 399 21 127 43
158 63 371 252 382 338 722 561 1562 1027 341 189 621 344 623 345 2 2 -121
1246 -134 1348 -5 43 -8 47 -32 46 -15 -1 -227 -18 -472 -39z"/>
</g>
</svg>
