<?xml version="1.0" standalone="no"?>
<!DOCTYPE svg PUBLIC "-//W3C//DTD SVG 20010904//EN"
 "http://www.w3.org/TR/2001/REC-SVG-20010904/DTD/svg10.dtd">
<svg version="1.0" xmlns="http://www.w3.org/2000/svg"
 width="844.000000pt" height="710.000000pt" viewBox="0 0 844.000000 710.000000"
 preserveAspectRatio="xMidYMid meet">

<g transform="translate(0.000000,710.000000) scale(0.100000,-0.100000)"
fill="#000000" stroke="none">
<path d="M2028 7080 c-35 -22 -43 -54 -48 -202 l-5 -147 -33 -34 c-19 -19 -57
-47 -85 -62 -121 -65 -142 -98 -89 -147 62 -58 110 -63 153 -17 16 18 55 81
85 141 47 91 65 116 112 154 87 70 169 152 181 183 20 46 0 78 -66 108 -62 29
-176 41 -205 23z"/>
<path d="M1422 6645 c-79 -34 -96 -93 -58 -196 30 -81 32 -106 11 -155 -22
-54 -69 -108 -164 -191 -47 -41 -98 -93 -113 -115 -58 -85 -26 -184 65 -209
35 -9 55 -7 129 11 132 33 183 19 363 -100 185 -123 249 -143 213 -67 -39 81
-185 210 -309 273 -37 18 -69 40 -72 49 -9 21 6 57 41 96 71 83 78 115 37 175
-14 21 -25 51 -25 70 0 34 2 37 105 127 37 32 39 38 39 89 0 102 -63 158 -177
158 -28 -1 -67 -7 -85 -15z"/>
<path d="M2408 6486 c-93 -34 -198 -144 -198 -207 0 -61 136 -148 296 -189 64
-17 105 -20 214 -18 l135 3 95 -49 c52 -27 120 -62 151 -78 58 -31 89 -30 89
4 0 30 -67 84 -171 138 -129 67 -248 100 -355 100 -45 0 -86 5 -89 10 -4 6 6
45 21 88 l27 77 -20 47 c-12 25 -33 54 -47 63 -35 23 -103 28 -148 11z"/>
<path d="M825 6351 c-113 -28 -203 -143 -213 -272 -7 -103 25 -149 104 -149
111 0 201 124 211 290 5 77 3 88 -17 113 -22 28 -33 30 -85 18z"/>
<path d="M2067 6042 c-109 -72 -179 -337 -119 -449 20 -37 48 -38 121 -4 150
69 370 109 641 118 285 9 439 -16 678 -108 123 -48 172 -58 172 -37 0 89 -479
241 -920 292 -157 18 -213 39 -351 132 -122 82 -166 93 -222 56z"/>
<path d="M1097 5621 c-48 -53 -90 -139 -112 -226 -30 -120 -6 -217 70 -283 60
-53 101 -36 135 55 41 110 43 370 3 451 -25 52 -51 52 -96 3z"/>
<path d="M2690 5524 c-14 -2 -77 -11 -140 -20 -232 -31 -479 -106 -652 -197
-145 -76 -214 -73 -393 19 -59 31 -113 53 -121 50 -41 -16 10 -107 87 -157
108 -69 256 -88 394 -49 39 11 125 35 193 54 243 69 545 118 812 132 257 13
509 -28 710 -116 117 -50 191 -93 395 -231 88 -59 169 -110 181 -113 11 -3 28
0 38 7 18 13 17 15 -2 54 -29 56 -165 181 -290 264 -121 81 -348 196 -464 235
-164 54 -246 66 -493 69 -126 2 -241 1 -255 -1z"/>
<path d="M525 5437 c-53 -56 -122 -192 -136 -269 -13 -74 1 -128 42 -162 74
-62 164 -2 221 148 40 103 34 215 -15 287 -34 50 -61 49 -112 -4z"/>
<path d="M4455 5121 c-74 -45 -155 -174 -155 -247 0 -32 18 -38 71 -24 129 35
269 137 269 196 0 73 -114 119 -185 75z"/>
<path d="M2437 5110 c4 -4 35 -27 68 -52 108 -82 138 -128 85 -128 -10 0 -98
20 -195 45 -97 25 -225 51 -283 57 -152 16 -336 -5 -232 -26 44 -8 181 -73
207 -97 45 -43 19 -56 -192 -98 -244 -49 -302 -55 -475 -55 -151 0 -171 2
-240 26 -106 36 -124 39 -159 27 -88 -31 -41 -112 110 -189 122 -62 193 -71
454 -56 155 10 212 0 309 -52 55 -30 74 -57 135 -193 l44 -97 -17 -48 c-80
-231 41 -501 312 -697 138 -101 389 -201 702 -282 388 -99 469 -126 581 -194
l64 -39 7 -238 c8 -259 33 -648 48 -741 16 -96 12 -278 -10 -408 -72 -443
-286 -802 -560 -939 -115 -57 -190 -70 -379 -63 -179 6 -242 23 -435 114 -165
79 -220 89 -276 51 -51 -34 -68 -88 -51 -163 78 -349 541 -599 1026 -555 667
61 1196 372 1429 838 21 41 52 120 71 175 94 284 92 530 -10 1192 -32 210 -46
322 -61 484 l-6 73 33 -7 c144 -30 360 -78 387 -87 l34 -10 -8 -132 c-11 -183
-8 -409 6 -486 23 -128 108 -247 207 -293 42 -19 64 -22 168 -21 182 2 303 36
384 110 63 57 84 104 89 204 12 246 -134 485 -397 651 l-56 35 3 175 c4 212
-11 419 -38 524 -45 177 -126 239 -379 290 -136 28 -254 -9 -362 -112 -146
-139 -234 -358 -240 -601 -1 -40 -6 -75 -11 -78 -4 -3 -33 0 -63 6 l-55 11 0
162 c0 249 26 493 67 637 24 85 68 175 94 194 34 23 98 20 196 -11 105 -32
131 -27 152 33 20 59 8 107 -42 161 -22 24 -59 55 -81 68 -54 31 -168 65 -219
65 -38 0 -47 7 -161 119 -152 148 -281 255 -416 343 -140 92 -596 317 -760
376 -8 3 1 -13 21 -34 81 -88 110 -144 73 -144 -9 0 -100 29 -203 64 -103 35
-221 71 -262 80 -104 23 -242 45 -232 36z m468 -456 c-161 -149 87 -406 342
-353 60 12 126 56 148 98 19 38 19 107 0 144 -13 26 -10 25 95 -29 125 -63
268 -156 369 -239 l69 -57 -12 -52 c-46 -192 -227 -325 -491 -358 -196 -25
-440 29 -625 137 -147 87 -283 243 -321 368 -31 102 -27 218 10 302 l19 42 88
10 c49 5 144 10 212 10 l123 1 -26 -24z m152 -14 c37 -22 50 -58 34 -89 -25
-45 -120 -40 -163 9 -33 36 -35 53 -8 80 26 26 94 27 137 0z m-617 -812 c106
-70 297 -162 423 -203 259 -84 534 -88 812 -10 50 13 93 25 96 25 4 0 2 -21
-3 -47 -13 -71 -38 -328 -38 -405 0 -38 -2 -68 -4 -68 -2 0 -28 11 -57 24 -68
29 -219 85 -464 171 -539 189 -750 313 -889 523 -37 57 -76 133 -76 149 0 3
28 -21 63 -52 34 -31 96 -79 137 -107z m2464 -270 c33 -15 62 -76 77 -163 11
-66 7 -520 -5 -532 -4 -5 -397 34 -445 43 -24 5 -24 6 -17 91 12 157 52 312
107 408 71 126 196 193 283 153z m-608 -743 l41 -6 7 -102 c9 -124 37 -355 76
-622 63 -433 73 -606 45 -766 -90 -517 -530 -964 -1047 -1064 -101 -20 -351
-30 -471 -20 -49 4 -86 9 -84 12 3 2 78 15 168 28 175 25 264 51 393 114 418
204 706 603 811 1125 33 165 49 325 41 421 -9 113 -43 637 -51 779 -7 112 -6
118 11 113 11 -3 38 -8 60 -12z m1114 -402 c70 -95 111 -198 117 -294 9 -122
-9 -159 -75 -159 -40 0 -76 19 -92 50 -21 40 -31 167 -24 318 3 83 10 152 15
152 5 0 32 -30 59 -67z"/>
<path d="M95 4797 c-52 -54 -75 -124 -82 -244 -6 -98 7 -175 34 -205 73 -81
208 133 220 349 5 88 5 92 -20 117 -20 20 -36 26 -68 26 -37 0 -48 -6 -84 -43z"/>
<path d="M4434 4646 c-81 -36 -120 -159 -67 -211 35 -36 135 9 187 84 29 42
35 101 11 121 -23 19 -96 22 -131 6z"/>
<path d="M7729 4505 c-86 -27 -139 -116 -139 -228 1 -97 58 -239 114 -282 82
-63 245 -85 331 -46 86 39 120 110 113 235 -12 202 -123 325 -298 333 -47 2
-92 -3 -121 -12z m151 -170 c62 -32 100 -104 101 -194 2 -101 -43 -151 -133
-151 -68 0 -128 36 -156 92 -45 91 -38 210 14 245 50 32 119 35 174 8z"/>
<path d="M904 4371 c-19 -11 -38 -36 -49 -62 -48 -121 -16 -436 47 -447 24 -4
80 49 106 102 31 61 45 155 37 245 -8 93 -29 148 -66 166 -36 19 -38 19 -75
-4z"/>
<path d="M360 4332 c-23 -11 -43 -33 -60 -67 -21 -42 -25 -62 -25 -145 1 -127
31 -225 90 -287 47 -48 78 -55 117 -23 84 66 59 404 -37 506 -37 39 -39 40
-85 16z"/>
<path d="M1359 3921 c-52 -33 -110 -113 -134 -189 -28 -86 -12 -97 89 -62 177
61 281 176 214 237 -57 52 -104 56 -169 14z"/>
<path d="M5654 3721 c-25 -11 -35 -41 -22 -65 5 -9 46 -34 91 -55 97 -45 140
-79 170 -135 21 -39 22 -52 21 -251 -1 -152 -10 -299 -33 -535 -46 -474 -42
-578 27 -718 76 -157 252 -248 425 -221 164 26 274 125 312 279 22 90 30 366
16 580 -37 597 -43 741 -33 830 12 96 34 143 72 153 31 8 67 -28 86 -85 16
-49 16 -76 4 -388 -21 -537 -3 -922 50 -1091 30 -96 59 -139 128 -191 76 -58
151 -82 252 -83 193 -1 276 79 319 305 31 161 42 603 21 866 -34 432 -124 753
-225 801 -31 15 -36 15 -59 -1 -39 -25 -34 -64 39 -265 106 -295 139 -502 139
-886 1 -280 -9 -350 -65 -462 -38 -78 -84 -116 -142 -117 -35 -1 -44 3 -63 32
-72 106 -86 414 -47 1043 14 238 14 262 -1 332 -56 250 -282 383 -498 292 -70
-29 -123 -117 -153 -255 -37 -166 -30 -634 12 -890 37 -229 -15 -487 -108
-536 -55 -28 -128 14 -150 87 -34 118 -31 388 11 883 27 309 26 403 -2 463
-47 100 -177 197 -343 256 -84 30 -214 44 -251 28z"/>
<path d="M7606 3705 c-24 -24 -17 -35 46 -77 166 -110 200 -227 159 -543 -11
-88 -30 -230 -41 -315 -30 -224 -37 -508 -16 -630 31 -178 111 -296 229 -337
40 -14 83 -18 187 -18 128 0 138 2 192 28 57 28 74 50 62 80 -9 26 -34 29
-127 15 -108 -15 -129 -7 -169 67 -59 109 -66 288 -23 635 32 258 43 507 25
589 -17 81 -81 208 -145 288 -125 157 -325 272 -379 218z"/>
<path d="M1685 3613 c-39 -10 -87 -56 -111 -107 -31 -67 -34 -181 -5 -217 15
-19 21 -21 34 -11 8 7 18 23 21 36 3 13 41 54 83 91 121 106 157 167 121 203
-12 12 -102 15 -143 5z"/>
<path d="M1064 3418 c-59 -52 -83 -138 -50 -180 34 -45 140 -4 194 76 56 84
34 136 -58 136 -41 0 -55 -5 -86 -32z"/>
<path d="M1921 3283 c-36 -7 -119 -96 -147 -158 -17 -38 -24 -68 -22 -97 3
-40 5 -43 34 -46 25 -2 48 10 125 69 119 90 156 125 168 160 8 22 6 31 -9 44
-29 27 -93 38 -149 28z"/>
<path d="M1877 2869 c-54 -13 -128 -53 -160 -87 -40 -41 -35 -88 12 -119 40
-27 107 -31 150 -9 59 31 131 133 131 186 0 35 -55 47 -133 29z"/>
<path d="M5336 1311 c-58 -147 -71 -171 -94 -180 -22 -8 -16 -9 38 -9 36 0 57
2 46 5 -19 5 -19 29 3 86 10 25 15 27 66 27 l56 0 20 -47 c11 -25 18 -52 15
-60 -4 -10 9 -13 57 -12 43 0 56 3 42 9 -32 12 -40 26 -105 185 -33 82 -64
153 -69 158 -4 4 -38 -69 -75 -162z m86 11 c10 -26 18 -50 18 -54 0 -5 -21 -8
-46 -8 -40 0 -45 2 -39 18 4 9 14 36 22 60 8 24 18 40 21 37 4 -3 14 -27 24
-53z"/>
<path d="M5946 1311 c-58 -147 -71 -171 -94 -180 -22 -8 -16 -9 38 -9 36 0 57
2 48 5 -22 6 -23 29 -3 77 15 35 16 36 70 36 l56 0 20 -47 c11 -25 18 -52 15
-60 -4 -10 19 -13 117 -12 77 0 114 3 101 9 -18 7 -22 20 -27 86 -9 95 -9 154
-1 154 3 0 61 -57 129 -127 67 -71 126 -125 129 -122 4 4 9 81 13 172 5 140 9
167 22 170 9 3 -11 5 -44 4 -33 0 -50 -2 -39 -4 20 -4 22 -13 28 -125 4 -66 5
-122 3 -124 -2 -3 -63 57 -136 131 -72 75 -132 135 -132 133 -1 -2 -5 -79 -8
-173 l-6 -170 -31 -3 c-19 -2 -36 3 -46 15 -9 10 -44 85 -77 168 -34 82 -65
153 -70 158 -4 4 -38 -69 -75 -162z m86 11 c10 -26 18 -50 18 -54 0 -5 -21 -8
-46 -8 -40 0 -45 2 -39 18 4 9 14 36 22 60 8 24 18 40 21 37 4 -3 14 -27 24
-53z"/>
<path d="M5108 1463 l23 -5 -3 -198 -3 -199 -30 -32 c-16 -18 -23 -28 -15 -24
97 53 110 86 110 292 0 145 2 162 18 166 9 3 -14 5 -53 4 -38 0 -60 -2 -47 -4z"/>
<path d="M5550 1457 c19 -10 39 -48 90 -171 36 -87 70 -158 75 -158 6 0 42 70
80 157 39 86 79 163 90 171 17 13 13 14 -36 13 -30 -1 -46 -3 -36 -6 9 -2 17
-7 17 -9 0 -13 -94 -244 -99 -244 -3 0 -26 54 -50 121 -37 100 -42 122 -30
130 9 6 -11 9 -56 9 -63 0 -67 -2 -45 -13z"/>
<path d="M7410 909 c-58 -3 -97 -6 -87 -7 15 -2 17 -17 17 -162 0 -141 -2
-160 -17 -169 -13 -8 11 -10 88 -11 114 0 120 3 118 53 l0 22 -9 -21 c-9 -24
-49 -35 -89 -25 -25 7 -26 11 -29 79 l-3 72 40 0 c30 0 44 -6 55 -22 16 -22
16 -22 16 13 l0 36 -55 -5 -55 -4 0 66 0 66 45 0 c31 0 47 -5 54 -17 12 -23
23 -12 19 19 -3 23 -4 23 -108 17z"/>
<path d="M5072 898 c9 -7 40 -86 69 -175 30 -90 57 -163 61 -163 3 0 29 57 56
127 l49 127 20 -45 c10 -24 34 -81 53 -126 18 -46 36 -83 39 -83 3 0 31 73 61
162 30 88 61 167 68 175 11 11 6 13 -30 13 -29 0 -38 -3 -29 -9 12 -8 9 -28
-19 -125 -18 -63 -36 -113 -40 -111 -3 2 -28 58 -55 124 -27 67 -51 121 -54
121 -4 0 -26 -56 -51 -125 -25 -69 -48 -125 -51 -125 -10 0 -71 220 -65 236 4
11 -5 14 -46 14 -43 0 -49 -2 -36 -12z"/>
<path d="M5623 899 c15 -9 17 -27 17 -157 0 -149 -3 -164 -30 -175 -8 -3 19
-5 60 -5 41 0 67 2 57 5 -29 8 -37 46 -37 183 0 104 3 132 16 144 14 15 10 16
-43 16 -44 -1 -54 -3 -40 -11z"/>
<path d="M5833 899 c15 -9 17 -27 17 -157 0 -149 -3 -164 -30 -175 -8 -3 36
-6 98 -6 112 -1 113 -1 122 25 15 38 12 51 -6 26 -12 -18 -25 -22 -64 -22 -27
0 -51 4 -54 8 -11 18 -18 172 -12 235 6 49 12 67 24 70 9 3 -12 5 -48 6 -49 0
-61 -2 -47 -10z"/>
<path d="M6108 900 c21 -9 22 -13 22 -164 0 -137 -2 -156 -17 -165 -13 -8 12
-10 92 -10 120 -1 169 14 212 60 49 54 59 153 21 209 -47 68 -65 75 -216 77
-95 2 -130 0 -114 -7z m216 -33 c49 -28 76 -77 76 -140 0 -64 -23 -112 -65
-131 -39 -19 -116 -21 -133 -4 -8 8 -12 57 -12 155 l0 143 48 0 c30 0 61 -8
86 -23z"/>
<path d="M6543 903 c15 -4 17 -20 17 -163 0 -141 -2 -160 -17 -169 -13 -8 13
-10 94 -11 l111 0 7 31 c8 35 0 51 -10 19 -6 -19 -13 -21 -63 -18 l-57 3 -3
152 c-2 138 -1 152 15 156 10 3 -11 5 -47 5 -36 0 -57 -2 -47 -5z"/>
<path d="M6823 903 c15 -4 17 -20 17 -163 0 -141 -2 -160 -17 -169 -13 -8 2
-10 57 -10 46 1 65 4 50 8 l-25 7 -3 161 c-2 148 -1 162 15 166 10 3 -11 5
-47 5 -36 0 -57 -2 -47 -5z"/>
<path d="M7033 903 c15 -4 17 -20 17 -163 0 -141 -2 -160 -17 -169 -13 -8 2
-10 57 -10 41 1 66 4 55 6 -30 8 -35 21 -35 101 l0 72 45 0 c38 0 47 -4 55
-22 8 -20 9 -19 9 12 l1 35 -55 -3 -55 -4 0 66 0 66 50 0 c43 0 52 -3 60 -22
8 -21 9 -20 9 10 l1 32 -107 -1 c-60 -1 -100 -3 -90 -6z"/>
<path d="M5337 310 c-4 -30 -7 -108 -7 -173 0 -111 -1 -118 -22 -126 -14 -5
-1 -8 42 -8 43 0 56 3 42 8 -18 7 -22 16 -22 52 0 24 -3 80 -6 123 l-6 79 134
-133 135 -134 6 63 c4 34 7 110 7 170 0 76 4 109 13 112 6 3 -8 6 -33 6 -25 0
-40 -3 -33 -7 14 -9 31 -242 17 -242 -5 0 -66 59 -135 132 l-126 132 -6 -54z"/>
<path d="M5814 350 c-29 -12 -54 -49 -54 -80 0 -32 23 -66 79 -115 54 -49 67
-79 46 -111 -11 -17 -25 -24 -48 -24 -39 0 -50 7 -70 45 l-16 30 -1 -42 c0
-38 3 -43 26 -49 14 -4 46 -4 72 -1 60 7 92 41 92 99 0 38 -5 47 -70 109 -38
37 -70 71 -70 76 0 23 33 53 58 53 34 0 49 -10 61 -40 9 -22 10 -21 8 15 l-2
40 -45 2 c-25 1 -55 -2 -66 -7z"/>
<path d="M5994 351 c-2 -2 -4 -15 -4 -28 0 -22 1 -23 16 -9 10 10 33 16 65 16
l49 0 0 -149 c0 -137 -2 -151 -19 -163 -17 -12 -11 -14 50 -14 42 0 62 3 50 8
-27 9 -33 48 -29 193 l3 120 42 3 c32 2 47 -2 62 -17 l21 -21 0 33 0 32 -151
0 c-83 0 -153 -2 -155 -4z"/>
<path d="M6535 342 c-3 -8 -5 -20 -5 -29 0 -12 2 -12 16 1 10 10 33 16 65 16
l49 0 0 -147 c0 -148 -3 -166 -29 -174 -7 -3 19 -5 58 -5 45 0 64 3 52 8 -20
7 -21 15 -21 153 0 80 0 148 0 153 0 4 17 8 39 10 30 2 45 -2 60 -17 l21 -21
0 33 0 32 -150 0 c-116 0 -151 -3 -155 -13z"/>
<path d="M7264 343 c-2 -7 -6 -20 -9 -28 -2 -8 -2 -15 1 -15 3 0 12 7 20 15
10 9 34 15 65 15 l49 0 0 -145 c0 -126 -2 -147 -18 -163 -17 -17 -15 -18 53
-18 38 -1 63 1 55 4 -35 10 -40 34 -40 179 l0 143 45 0 c32 0 51 -6 66 -21
l20 -20 -3 31 -3 31 -149 2 c-112 1 -149 -1 -152 -10z"/>
<path d="M7725 353 c-66 -3 -95 -7 -85 -13 23 -14 22 -306 -1 -323 -13 -9 7
-12 90 -12 l106 0 2 35 c2 30 1 32 -7 12 -8 -19 -17 -22 -59 -22 -57 0 -61 5
-61 91 l0 59 45 0 c38 0 47 -4 55 -22 8 -20 9 -19 9 12 l1 35 -55 -3 -55 -4 0
66 0 66 42 0 c24 0 49 -7 60 -17 17 -15 18 -14 18 15 0 18 -1 31 -2 30 -2 -1
-48 -4 -103 -5z"/>
<path d="M5118 343 c19 -7 17 -319 -2 -330 -9 -5 16 -8 57 -9 40 0 61 2 47 6
l-25 6 -3 159 c-2 120 1 160 10 167 8 4 -10 7 -42 7 -30 0 -49 -3 -42 -6z"/>
<path d="M6380 329 c7 -13 10 -71 8 -161 -2 -116 -6 -142 -20 -152 -13 -10 -4
-12 52 -12 55 0 64 2 47 11 -21 10 -22 18 -25 159 -2 101 1 153 9 162 9 12 3
14 -35 14 -44 0 -46 -1 -36 -21z"/>
<path d="M6898 338 c8 -8 12 -51 12 -126 0 -175 32 -219 151 -210 103 7 129
52 129 216 0 71 4 112 12 120 9 9 2 12 -32 11 -25 0 -39 -3 -32 -6 9 -3 12
-40 12 -135 l0 -130 -29 -29 c-40 -39 -82 -39 -122 1 l-30 30 3 135 3 135 -44
0 c-35 0 -42 -3 -33 -12z"/>
</g>
</svg>
